<svg width="400" height="300" viewBox="0 0 400 300" xmlns="http://www.w3.org/2000/svg">
  <!-- Background cloud shapes -->
  <path d="M50,150 Q75,120 100,150 T150,150 T200,150 T250,150 T300,150" fill="#f0f4f8" />
  <path d="M0,200 Q25,170 50,200 T100,200 T150,200 T200,200 T250,200 T300,200 T350,200 T400,200" fill="#e1e8ed" />
  
  <!-- Server rack -->
  <rect x="150" y="100" width="100" height="150" rx="5" fill="#4a5568" />
  <rect x="160" y="110" width="80" height="20" rx="2" fill="#2d3748" />
  <rect x="160" y="140" width="80" height="20" rx="2" fill="#2d3748" />
  <rect x="160" y="170" width="80" height="20" rx="2" fill="#2d3748" />
  <rect x="160" y="200" width="80" height="20" rx="2" fill="#2d3748" />
  <rect x="170" y="115" width="10" height="10" rx="1" fill="#68d391" />
  <rect x="170" y="145" width="10" height="10" rx="1" fill="#68d391" />
  <rect x="170" y="175" width="10" height="10" rx="1" fill="#68d391" />
  <rect x="170" y="205" width="10" height="10" rx="1" fill="#68d391" />
  
  <!-- Lock icon -->
  <circle cx="280" cy="150" r="40" fill="#0070f3" opacity="0.9" />
  <rect x="265" y="145" width="30" height="25" rx="2" fill="white" />
  <rect x="275" y="125" width="10" height="20" rx="5" fill="white" />
  <circle cx="280" cy="155" r="5" fill="#0070f3" />
  
  <!-- Code symbols -->
  <text x="50" y="100" font-family="monospace" font-size="24" fill="#4a5568">&lt;/&gt;</text>
  <text x="320" y="220" font-family="monospace" font-size="24" fill="#4a5568">{}</text>
  <text x="80" y="220" font-family="monospace" font-size="24" fill="#4a5568">[]</text>
</svg>